<?xml version="1.0" standalone="no"?>
<!DOCTYPE svg PUBLIC "-//W3C//DTD SVG 20010904//EN"
 "http://www.w3.org/TR/2001/REC-SVG-20010904/DTD/svg10.dtd">
<svg version="1.0" xmlns="http://www.w3.org/2000/svg"
 width="700.000000pt" height="700.000000pt" viewBox="0 0 700.000000 700.000000"
 preserveAspectRatio="xMidYMid meet">
<metadata>
Created by potrace 1.11, written by Peter Selinger 2001-2013
</metadata>
<g transform="translate(0.000000,700.000000) scale(0.100000,-0.100000)"
fill="#000000" stroke="none">
<path d="M3158 6995 c-1 -1 -55 -6 -118 -9 -140 -8 -218 -14 -290 -21 -30 -3
-75 -8 -100 -11 -25 -2 -76 -9 -115 -14 -38 -5 -90 -12 -114 -15 -105 -12
-369 -62 -511 -96 -163 -38 -148 -34 -237 -59 -122 -35 -218 -67 -347 -117
-125 -48 -369 -168 -374 -184 -2 -5 -8 -9 -14 -9 -20 0 -159 -113 -218 -177
-59 -65 -114 -159 -127 -218 -4 -17 -6 -58 -6 -93 2 -135 87 -272 243 -390 19
-15 37 -29 40 -32 37 -39 283 -168 435 -228 199 -78 500 -170 645 -196 14 -2
79 -15 145 -29 66 -14 140 -28 165 -31 25 -3 70 -10 100 -16 30 -5 79 -12 109
-15 30 -4 61 -8 70 -10 18 -3 130 -16 176 -20 17 -1 64 -5 105 -9 141 -13 175
-15 325 -22 259 -12 695 -7 910 11 209 17 192 16 320 31 33 3 69 7 80 8 110
11 411 63 565 97 74 17 142 32 151 34 123 27 398 115 524 167 39 16 84 34 100
41 58 21 201 100 295 162 300 199 394 422 272 649 -38 72 -171 202 -278 274
-222 148 -629 304 -1010 387 -165 35 -413 80 -499 90 -27 3 -77 10 -110 15
-53 8 -118 15 -220 26 -16 1 -70 6 -120 9 -49 4 -110 9 -135 11 -51 6 -826 14
-832 9z"/>
<path d="M585 4647 c1 -381 2 -394 24 -449 43 -110 166 -243 310 -336 212
-138 526 -263 878 -352 153 -38 366 -83 448 -95 22 -3 63 -10 90 -15 45 -8 89
-14 260 -35 28 -3 64 -8 80 -10 189 -25 494 -39 825 -39 314 0 508 8 720 29
30 3 75 8 100 10 42 4 93 10 185 21 33 4 196 30 306 49 16 3 43 7 61 10 29 6
284 61 318 70 278 72 509 155 700 250 273 135 443 289 506 455 15 39 17 97 19
437 1 283 -1 390 -9 385 -6 -4 -36 -23 -67 -44 -216 -142 -584 -290 -962 -387
-235 -61 -599 -127 -847 -155 -157 -18 -181 -20 -300 -30 -41 -4 -100 -8 -130
-11 -289 -25 -969 -25 -1190 -1 -19 2 -78 7 -130 11 -52 3 -108 8 -125 10 -16
2 -57 6 -90 9 -33 4 -71 8 -85 10 -14 3 -52 7 -85 11 -32 4 -62 8 -65 10 -3 2
-30 6 -60 9 -45 5 -196 30 -315 51 -156 29 -454 105 -628 161 -151 49 -385
143 -460 185 -10 5 -48 26 -85 46 -37 20 -92 52 -122 72 -30 20 -60 40 -66 43
-8 5 -10 -104 -9 -385z"/>
<path d="M585 2998 c1 -259 5 -396 13 -423 19 -68 79 -156 156 -232 170 -167
451 -309 861 -436 64 -20 399 -103 445 -111 48 -8 82 -14 170 -31 41 -7 95
-17 120 -21 25 -3 52 -8 60 -9 8 -2 42 -6 75 -9 33 -4 74 -9 90 -11 35 -5 93
-11 190 -21 39 -3 81 -8 95 -10 209 -26 1009 -26 1275 1 17 1 64 6 105 10 41
3 86 8 100 10 14 2 48 6 75 9 28 4 70 8 95 11 25 3 101 15 170 26 69 12 139
23 155 25 17 2 48 8 70 13 22 6 103 24 180 41 708 157 1203 433 1313 732 13
36 16 107 17 431 1 213 0 387 -3 387 -3 0 -28 -15 -56 -34 -152 -101 -357
-199 -581 -280 -266 -95 -713 -202 -1005 -240 -50 -7 -117 -17 -140 -21 -8 -2
-42 -6 -75 -9 -33 -4 -71 -9 -85 -11 -25 -4 -83 -10 -195 -20 -33 -3 -80 -8
-105 -10 -281 -27 -1166 -27 -1330 -1 -14 3 -61 7 -105 11 -44 3 -93 7 -110 9
-16 2 -57 7 -90 11 -61 7 -103 12 -165 20 -19 3 -53 8 -75 11 -70 9 -278 44
-325 54 -25 5 -56 12 -70 14 -28 5 -29 5 -185 41 -301 71 -568 160 -787 263
-106 50 -262 138 -307 173 -13 11 -27 19 -31 19 -3 0 -6 -172 -5 -382z"/>
<path d="M589 1727 c-8 -12 -5 -734 3 -777 16 -85 64 -166 153 -256 206 -209
602 -388 1145 -518 80 -19 172 -40 205 -45 33 -6 71 -13 85 -16 14 -3 54 -10
90 -15 36 -6 76 -13 90 -15 14 -3 45 -7 70 -10 25 -3 56 -7 70 -10 14 -2 52
-7 85 -11 33 -3 69 -8 79 -10 11 -2 57 -6 104 -9 46 -4 98 -8 115 -10 209 -27
963 -27 1237 0 19 2 72 6 118 10 46 3 93 8 105 11 12 2 49 6 82 10 102 10 173
20 280 39 44 8 98 17 120 20 22 4 56 10 75 15 19 5 53 12 75 16 21 3 109 23
195 44 678 168 1123 427 1228 713 13 34 16 111 18 417 1 206 0 383 -2 392 -4
14 -17 9 -79 -32 -157 -102 -418 -221 -645 -294 -63 -20 -135 -43 -160 -51
-25 -8 -56 -17 -70 -20 -14 -2 -52 -11 -85 -20 -79 -20 -263 -63 -295 -68 -14
-3 -63 -12 -110 -21 -114 -21 -135 -24 -189 -32 -25 -3 -57 -8 -71 -10 -14 -3
-63 -9 -110 -15 -47 -5 -97 -12 -112 -14 -15 -3 -56 -7 -90 -10 -35 -3 -76 -7
-93 -9 -16 -2 -70 -7 -120 -11 -49 -4 -110 -8 -135 -10 -278 -22 -846 -22
-1095 -1 -22 2 -84 7 -138 11 -54 3 -106 8 -116 10 -10 2 -51 6 -92 9 -110 10
-457 57 -515 71 -12 2 -39 7 -60 10 -21 3 -59 10 -84 15 -25 5 -58 12 -75 15
-50 8 -313 74 -425 106 -279 82 -609 224 -782 338 -43 28 -79 50 -79 48z"/>
</g>
</svg>
